<svg width="800" height="800" viewBox="0 0 800 800" fill="none" xmlns="http://www.w3.org/2000/svg">
<rect width="800" height="800" rx="150" fill="url(#paint0_linear_3_38)"/>
<path d="M400 409.5L534.956 409.5C528.766 480.333 470.505 535.5 400 535.5C329.495 535.5 271.234 480.333 265.044 409.5L400 409.5Z" fill="#2E54E7" stroke="white" stroke-width="25"/>
<circle cx="331.5" cy="315.5" r="29.5" fill="#A0B0ED"/>
<ellipse cx="472.5" cy="315.533" rx="29.5" ry="28.5328" fill="#D9D9D9"/>
<path d="M694.378 418.293V438.108C676.587 438.108 664.122 441.837 656.984 449.294C649.953 456.751 646.438 469.216 646.438 486.688V537.824C646.438 552.526 644.999 565.256 642.123 576.016C639.353 586.776 634.772 595.672 628.38 602.703C621.988 609.734 613.465 614.955 602.812 618.364C592.158 621.773 579.001 623.477 563.341 623.477V592.156C575.699 592.156 585.393 590.185 592.425 586.244C599.563 582.408 604.57 576.496 607.446 568.506C610.429 560.516 611.92 550.288 611.92 537.824V473.903C611.92 465.594 612.986 458.03 615.116 451.212C617.354 444.393 621.402 438.534 627.261 433.634C633.121 428.733 641.43 424.951 652.19 422.288C663.057 419.624 677.119 418.293 694.378 418.293ZM563.341 214.386C579.001 214.386 592.158 216.091 602.812 219.5C613.465 222.909 621.988 228.129 628.38 235.161C634.772 242.192 639.353 251.087 642.123 261.847C644.999 272.607 646.438 285.338 646.438 300.04V351.176C646.438 368.648 649.953 381.112 656.984 388.57C664.122 396.027 676.587 399.756 694.378 399.756V419.571C677.119 419.571 663.057 418.239 652.19 415.576C641.43 412.913 633.121 409.131 627.261 404.23C621.402 399.33 617.354 393.47 615.116 386.652C612.986 379.834 611.92 372.27 611.92 363.96V300.04C611.92 287.575 610.429 277.348 607.446 269.358C604.57 261.261 599.563 255.295 592.425 251.46C585.393 247.625 575.699 245.707 563.341 245.707V214.386ZM694.378 399.756V438.108H656.665V399.756H694.378Z" fill="white"/>
<path d="M105.619 419.571V399.756C123.411 399.756 135.822 396.027 142.853 388.57C149.991 381.112 153.56 368.648 153.56 351.176V300.04C153.56 285.338 154.945 272.607 157.714 261.847C160.591 251.087 165.225 242.192 171.617 235.161C178.009 228.129 186.532 222.909 197.185 219.5C207.839 216.091 220.996 214.386 236.656 214.386V245.707C224.298 245.707 214.55 247.625 207.413 251.46C200.381 255.295 195.374 261.261 192.391 269.358C189.515 277.348 188.077 287.575 188.077 300.04V363.96C188.077 372.27 186.958 379.834 184.721 386.652C182.59 393.47 178.595 399.33 172.736 404.23C166.876 409.131 158.513 412.913 147.647 415.576C136.887 418.239 122.878 419.571 105.619 419.571ZM236.656 623.477C220.996 623.477 207.839 621.773 197.185 618.364C186.532 614.955 178.009 609.734 171.617 602.703C165.225 595.672 160.591 586.776 157.714 576.016C154.945 565.256 153.56 552.526 153.56 537.824V486.688C153.56 469.216 149.991 456.751 142.853 449.294C135.822 441.837 123.411 438.108 105.619 438.108V418.293C122.878 418.293 136.887 419.624 147.647 422.288C158.513 424.951 166.876 428.733 172.736 433.634C178.595 438.534 182.59 444.393 184.721 451.212C186.958 458.03 188.077 465.594 188.077 473.903V537.824C188.077 550.288 189.515 560.516 192.391 568.506C195.374 576.496 200.381 582.408 207.413 586.244C214.55 590.185 224.298 592.156 236.656 592.156V623.477ZM105.619 438.108V399.756H143.332V438.108H105.619Z" fill="white"/>
<defs>
<linearGradient id="paint0_linear_3_38" x1="634" y1="-89" x2="106" y2="855" gradientUnits="userSpaceOnUse">
<stop stop-color="#345AF0"/>
<stop offset="1" stop-color="#090458"/>
</linearGradient>
</defs>
</svg>
